Oswald--700.ufo
<glyph name="asterisk" format="1">
  <advance width="867"/>
  <unicode hex="002A"/>
  <outline>
    <contour>
      <point x="352" y="921" type="line"/>
      <point x="454" y="1140" type="line"/>
      <point x="557" y="921" type="line"/>
      <point x="756" y="1038" type="line"/>
      <point x="607" y="1244" type="line"/>
      <point x="827" y="1329" type="line"/>
      <point x="753" y="1530" type="line"/>
      <point x="554" y="1418" type="line"/>
      <point x="579" y="1657" type="line"/>
      <point x="330" y="1657" type="line"/>
      <point x="357" y="1420" type="line"/>
      <point x="157" y="1530" type="line"/>
      <point x="82" y="1330" type="line"/>
      <point x="301" y="1246" type="line"/>
      <point x="155" y="1037" type="line"/>
    </contour>
  </outline>
</glyph>
<glyph name="three" format="1">
  <advance width="1078"/>
  <unicode hex="0033"/>
  <outline>
    <contour>
      <point x="555" y="-30" type="curve" smooth="yes"/>
      <point x="886" y="-30"/>
      <point x="1008" y="184"/>
      <point x="1008" y="488" type="curve" smooth="yes"/>
      <point x="1008" y="722"/>
      <point x="922" y="828"/>
      <point x="804" y="871" type="curve"/>
      <point x="919" y="902"/>
      <point x="1008" y="1041"/>
      <point x="1008" y="1234" type="curve" smooth="yes"/>
      <point x="1008" y="1530"/>
      <point x="837" y="1684"/>
      <point x="550" y="1684" type="curve" smooth="yes"/>
      <point x="268" y="1684"/>
      <point x="96" y="1518"/>
      <point x="96" y="1220" type="curve" smooth="yes"/>
      <point x="96" y="1120" type="line"/>
      <point x="439" y="1120" type="line"/>
      <point x="439" y="1123"/>
      <point x="439" y="1202"/>
      <point x="439" y="1205" type="curve" smooth="yes"/>
      <point x="440" y="1325"/>
      <point x="458" y="1409"/>
      <point x="551" y="1409" type="curve" smooth="yes"/>
      <point x="642" y="1409"/>
      <point x="670" y="1340"/>
      <point x="670" y="1212" type="curve" smooth="yes"/>
      <point x="670" y="1048"/>
      <point x="634" y="974"/>
      <point x="490" y="972" type="curve" smooth="yes"/>
      <point x="487" y="972"/>
      <point x="438" y="972"/>
      <point x="436" y="972" type="curve"/>
      <point x="436" y="732" type="line"/>
      <point x="438" y="732"/>
      <point x="493" y="732"/>
      <point x="496" y="732" type="curve" smooth="yes"/>
      <point x="637" y="728"/>
      <point x="670" y="642"/>
      <point x="670" y="479" type="curve" smooth="yes"/>
      <point x="670" y="333"/>
      <point x="654" y="258"/>
      <point x="559" y="258" type="curve" smooth="yes"/>
      <point x="465" y="258"/>
      <point x="440" y="326"/>
      <point x="439" y="490" type="curve" smooth="yes"/>
      <point x="439" y="493"/>
      <point x="439" y="544"/>
      <point x="439" y="548" type="curve"/>
      <point x="96" y="548" type="line"/>
      <point x="96" y="489" type="line" smooth="yes"/>
      <point x="96" y="179"/>
      <point x="208" y="-30"/>
    </contour>
  </outline>
</glyph>
<glyph name="semicolon" format="1">
  <advance width="579"/>
  <unicode hex="003B"/>
  <outline>
    <contour>
      <point x="185" y="-238" type="line"/>
      <point x="366" y="-237"/>
      <point x="452" y="-124"/>
      <point x="452" y="78" type="curve" smooth="yes"/>
      <point x="452" y="350" type="line"/>
      <point x="136" y="350" type="line"/>
      <point x="136" y="38" type="line"/>
      <point x="311" y="38" type="line"/>
      <point x="311" y="-79"/>
      <point x="240" y="-118"/>
      <point x="164" y="-130" type="curve"/>
    </contour>
    <contour>
      <point x="135" y="866" type="line"/>
      <point x="448" y="866" type="line"/>
      <point x="448" y="1178" type="line"/>
      <point x="135" y="1178" type="line"/>
    </contour>
  </outline>
</glyph>
<glyph name="at" format="1">
  <advance width="1951"/>
  <unicode hex="0040"/>
  <outline>
    <contour>
      <point x="969" y="-262" type="curve" smooth="yes"/>
      <point x="1123" y="-262"/>
      <point x="1290" y="-232"/>
      <point x="1443" y="-196" type="curve"/>
      <point x="1405" y="10" type="line"/>
      <point x="1284" y="-30"/>
      <point x="1104" y="-57"/>
      <point x="1000" y="-57" type="curve" smooth="yes"/>
      <point x="481" y="-57"/>
      <point x="306" y="241"/>
      <point x="361" y="714" type="curve"/>
      <point x="402" y="1120"/>
      <point x="620" y="1457"/>
      <point x="1091" y="1457" type="curve" smooth="yes"/>
      <point x="1539" y="1457"/>
      <point x="1693" y="1182"/>
      <point x="1655" y="785" type="curve" smooth="yes"/>
      <point x="1635" y="545"/>
      <point x="1500" y="360"/>
      <point x="1382" y="389" type="curve" smooth="yes"/>
      <point x="1337" y="401"/>
      <point x="1355" y="520"/>
      <point x="1361" y="568" type="curve" smooth="yes"/>
      <point x="1452" y="1242" type="line"/>
      <point x="1186" y="1242" type="line"/>
      <point x="1166" y="1115" type="line"/>
      <point x="1149" y="1154"/>
      <point x="1115" y="1255"/>
      <point x="1015" y="1255" type="curve" smooth="yes"/>
      <point x="689" y="1255"/>
      <point x="557" y="877"/>
      <point x="549" y="639" type="curve" smooth="yes"/>
      <point x="539" y="396"/>
      <point x="671" y="198"/>
      <point x="901" y="218" type="curve" smooth="yes"/>
      <point x="991" y="226"/>
      <point x="1064" y="283"/>
      <point x="1095" y="355" type="curve"/>
      <point x="1129" y="249"/>
      <point x="1247" y="202"/>
      <point x="1360" y="202" type="curve" smooth="yes"/>
      <point x="1710" y="202"/>
      <point x="1864" y="534"/>
      <point x="1883" y="789" type="curve" smooth="yes"/>
      <point x="1930" y="1280"/>
      <point x="1689" y="1659"/>
      <point x="1115" y="1659" type="curve" smooth="yes"/>
      <point x="534" y="1659"/>
      <point x="171" y="1280"/>
      <point x="118" y="709" type="curve" smooth="yes"/>
      <point x="52" y="108"/>
      <point x="355" y="-262"/>
    </contour>
    <contour>
      <point x="973" y="441" type="curve"/>
      <point x="872" y="435"/>
      <point x="836" y="531"/>
      <point x="837" y="637" type="curve" smooth="yes"/>
      <point x="838" y="809"/>
      <point x="922" y="1011"/>
      <point x="1085" y="1011" type="curve" smooth="yes"/>
      <point x="1101" y="1011"/>
      <point x="1141" y="1004"/>
      <point x="1142" y="983" type="curve" smooth="yes"/>
      <point x="1080" y="504" type="line"/>
      <point x="1060" y="454"/>
      <point x="989" y="444"/>
    </contour>
  </outline>
</glyph>
<glyph name="K" format="1">
  <advance width="1160"/>
  <unicode hex="004B"/>
  <outline>
    <contour>
      <point x="122" y="0" type="line"/>
      <point x="488" y="0" type="line"/>
      <point x="488" y="684" type="line"/>
      <point x="524" y="741" type="line"/>
      <point x="766" y="0" type="line"/>
      <point x="1140" y="0" type="line"/>
      <point x="818" y="909" type="line"/>
      <point x="1125" y="1658" type="line"/>
      <point x="768" y="1658" type="line"/>
      <point x="488" y="984" type="line"/>
      <point x="488" y="1658" type="line"/>
      <point x="122" y="1658" type="line"/>
    </contour>
  </outline>
</glyph>
<glyph name="L" format="1">
  <advance width="906"/>
  <unicode hex="004C"/>
  <outline>
    <contour>
      <point x="122" y="0" type="line"/>
      <point x="868" y="0" type="line"/>
      <point x="868" y="248" type="line"/>
      <point x="488" y="248" type="line"/>
      <point x="488" y="1658" type="line"/>
      <point x="122" y="1658" type="line"/>
    </contour>
  </outline>
</glyph>
<glyph name="U" format="1">
  <advance width="1202"/>
  <unicode hex="0055"/>
  <outline>
    <contour>
      <point x="601" y="-23" type="curve" smooth="yes"/>
      <point x="982" y="-23"/>
      <point x="1091" y="170"/>
      <point x="1091" y="522" type="curve" smooth="yes"/>
      <point x="1091" y="1658" type="line"/>
      <point x="728" y="1658" type="line"/>
      <point x="728" y="468" type="line" smooth="yes"/>
      <point x="728" y="359"/>
      <point x="718" y="242"/>
      <point x="601" y="242" type="curve" smooth="yes"/>
      <point x="483" y="242"/>
      <point x="473" y="359"/>
      <point x="473" y="468" type="curve" smooth="yes"/>
      <point x="473" y="1658" type="line"/>
      <point x="111" y="1658" type="line"/>
      <point x="111" y="522" type="line" smooth="yes"/>
      <point x="111" y="170"/>
      <point x="219" y="-23"/>
    </contour>
  </outline>
</glyph>
<glyph name="V" format="1">
  <advance width="1078"/>
  <unicode hex="0056"/>
  <outline>
    <contour>
      <point x="346" y="0" type="line"/>
      <point x="731" y="0" type="line"/>
      <point x="1035" y="1658" type="line"/>
      <point x="702" y="1658" type="line"/>
      <point x="537" y="540" type="line"/>
      <point x="359" y="1658" type="line"/>
      <point x="46" y="1658" type="line"/>
    </contour>
  </outline>
</glyph>
<glyph name="Y" format="1">
  <advance width="1011"/>
  <unicode hex="0059"/>
  <unicode hex="04AE"/>
  <outline>
    <contour>
      <point x="332" y="0" type="line"/>
      <point x="683" y="0" type="line"/>
      <point x="683" y="678" type="line"/>
      <point x="995" y="1658" type="line"/>
      <point x="662" y="1658" type="line"/>
      <point x="519" y="1133" type="line"/>
      <point x="361" y="1658" type="line"/>
      <point x="16" y="1658" type="line"/>
      <point x="332" y="678" type="line"/>
    </contour>
  </outline>
</glyph>
<glyph name="grave" format="1">
  <advance width="633"/>
  <unicode hex="0060"/>
  <outline>
    <contour>
      <point x="343" y="1246" type="line"/>
      <point x="551" y="1246" type="line"/>
      <point x="427" y="1658" type="line"/>
      <point x="84" y="1658" type="line"/>
    </contour>
  </outline>
</glyph>
<glyph name="f" format="1">
  <advance width="656"/>
  <unicode hex="0066"/>
  <outline>
    <contour>
      <point x="148" y="0" type="line"/>
      <point x="482" y="0" type="line"/>
      <point x="482" y="957" type="line"/>
      <point x="632" y="957" type="line"/>
      <point x="632" y="1184" type="line"/>
      <point x="482" y="1184" type="line"/>
      <point x="482" y="1277" type="line" smooth="yes"/>
      <point x="482" y="1341"/>
      <point x="511" y="1368"/>
      <point x="562" y="1368" type="curve" smooth="yes"/>
      <point x="585" y="1368"/>
      <point x="613" y="1362"/>
      <point x="632" y="1359" type="curve"/>
      <point x="632" y="1607" type="line"/>
      <point x="571" y="1614"/>
      <point x="524" y="1617"/>
      <point x="473" y="1617" type="curve" smooth="yes"/>
      <point x="185" y="1617"/>
      <point x="148" y="1478"/>
      <point x="148" y="1267" type="curve" smooth="yes"/>
      <point x="148" y="1184" type="line"/>
      <point x="35" y="1184" type="line"/>
      <point x="35" y="957" type="line"/>
      <point x="148" y="957" type="line"/>
    </contour>
  </outline>
</glyph>
<glyph name="bar" format="1">
  <advance width="538"/>
  <unicode hex="007C"/>
  <outline>
    <contour>
      <point x="131" y="-366" type="line"/>
      <point x="407" y="-366" type="line"/>
      <point x="407" y="1658" type="line"/>
      <point x="132" y="1658" type="line"/>
    </contour>
  </outline>
</glyph>
<glyph name="sterling" format="1">
  <advance width="1001"/>
  <unicode hex="00A3"/>
  <outline>
    <contour>
      <point x="41" y="0" type="line"/>
      <point x="930" y="0" type="line"/>
      <point x="930" y="282" type="line"/>
      <point x="485" y="282" type="line"/>
      <point x="485" y="656" type="line"/>
      <point x="727" y="656" type="line"/>
      <point x="727" y="915" type="line"/>
      <point x="485" y="915" type="line"/>
      <point x="485" y="1137" type="line" smooth="yes"/>
      <point x="486" y="1298"/>
      <point x="489" y="1402"/>
      <point x="566" y="1402" type="curve" smooth="yes"/>
      <point x="645" y="1402"/>
      <point x="648" y="1302"/>
      <point x="648" y="1183" type="curve"/>
      <point x="940" y="1183" type="line"/>
      <point x="940" y="1233" type="line" smooth="yes"/>
      <point x="939" y="1491"/>
      <point x="871" y="1681"/>
      <point x="564" y="1681" type="curve" smooth="yes"/>
      <point x="202" y="1681"/>
      <point x="163" y="1421"/>
      <point x="163" y="1101" type="curve" smooth="yes"/>
      <point x="163" y="917" type="line"/>
      <point x="41" y="917" type="line"/>
      <point x="41" y="656" type="line"/>
      <point x="163" y="656" type="line"/>
      <point x="163" y="245" type="line"/>
      <point x="41" y="188" type="line"/>
    </contour>
  </outline>
</glyph>
<glyph name="onequarter" format="1">
  <advance width="1407"/>
  <unicode hex="00BC"/>
  <outline>
    <contour>
      <point x="1027" y="1" type="line"/>
      <point x="1197" y="1" type="line"/>
      <point x="1197" y="229" type="line"/>
      <point x="1304" y="229" type="line"/>
      <point x="1304" y="381" type="line"/>
      <point x="1197" y="381" type="line"/>
      <point x="1197" y="859" type="line"/>
      <point x="1044" y="859" type="line"/>
      <point x="754" y="374" type="line"/>
      <point x="754" y="229" type="line"/>
      <point x="1027" y="229" type="line"/>
    </contour>
    <contour>
      <point x="226" y="828" type="line"/>
      <point x="424" y="828" type="line"/>
      <point x="424" y="1658" type="line"/>
      <point x="315" y="1658" type="line"/>
      <point x="270" y="1601"/>
      <point x="207" y="1545"/>
      <point x="105" y="1491" type="curve"/>
      <point x="105" y="1337" type="line"/>
      <point x="226" y="1393" type="line"/>
    </contour>
    <contour>
      <point x="218" y="0" type="line"/>
      <point x="385" y="0" type="line"/>
      <point x="1151" y="1658" type="line"/>
      <point x="983" y="1658" type="line"/>
    </contour>
    <contour>
      <point x="878" y="381" type="line"/>
      <point x="1027" y="644" type="line"/>
      <point x="1027" y="381" type="line"/>
    </contour>
  </outline>
</glyph>
<glyph name="onehalf" format="1">
  <advance width="1407"/>
  <unicode hex="00BD"/>
  <outline>
    <contour>
      <point x="839" y="1" type="line"/>
      <point x="1299" y="1" type="line"/>
      <point x="1299" y="149" type="line"/>
      <point x="1043" y="149" type="line"/>
      <point x="1052" y="161"/>
      <point x="1162" y="313"/>
      <point x="1174" y="327" type="curve"/>
      <point x="1253" y="439"/>
      <point x="1315" y="529"/>
      <point x="1315" y="644" type="curve" smooth="yes"/>
      <point x="1315" y="791"/>
      <point x="1219" y="874"/>
      <point x="1064" y="874" type="curve" smooth="yes"/>
      <point x="905" y="874"/>
      <point x="821" y="777"/>
      <point x="820" y="640" type="curve" smooth="yes"/>
      <point x="820" y="629"/>
      <point x="820" y="619"/>
      <point x="825" y="571" type="curve"/>
      <point x="1002" y="571" type="line"/>
      <point x="990" y="650"/>
      <point x="1011" y="725"/>
      <point x="1068" y="725" type="curve" smooth="yes"/>
      <point x="1117" y="725"/>
      <point x="1134" y="686"/>
      <point x="1134" y="641" type="curve" smooth="yes"/>
      <point x="1134" y="564"/>
      <point x="1078" y="492"/>
      <point x="1030" y="422" type="curve"/>
      <point x="839" y="149" type="line"/>
    </contour>
    <contour>
      <point x="174" y="828" type="line"/>
      <point x="372" y="828" type="line"/>
      <point x="372" y="1658" type="line"/>
      <point x="263" y="1658" type="line"/>
      <point x="217" y="1601"/>
      <point x="155" y="1545"/>
      <point x="52" y="1491" type="curve"/>
      <point x="52" y="1337" type="line"/>
      <point x="174" y="1393" type="line"/>
    </contour>
    <contour>
      <point x="173" y="0" type="line"/>
      <point x="340" y="0" type="line"/>
      <point x="1106" y="1658" type="line"/>
      <point x="938" y="1658" type="line"/>
    </contour>
  </outline>
</glyph>
<glyph name="questiondown" format="1">
  <advance width="1067"/>
  <unicode hex="00BF"/>
  <outline>
    <contour>
      <point x="557" y="-369" type="curve" smooth="yes"/>
      <point x="860" y="-369"/>
      <point x="970" y="-190"/>
      <point x="956" y="34" type="curve" smooth="yes"/>
      <point x="956" y="96"/>
      <point x="943" y="140"/>
      <point x="926" y="208" type="curve"/>
      <point x="624" y="140" type="line"/>
      <point x="636" y="102"/>
      <point x="645" y="77"/>
      <point x="645" y="34" type="curve" smooth="yes"/>
      <point x="649" y="-37"/>
      <point x="608" y="-82"/>
      <point x="550" y="-82" type="curve" smooth="yes"/>
      <point x="493" y="-82"/>
      <point x="440" y="-53"/>
      <point x="435" y="38" type="curve" smooth="yes"/>
      <point x="421" y="261"/>
      <point x="583" y="469"/>
      <point x="761" y="616" type="curve"/>
      <point x="761" y="880" type="line"/>
      <point x="457" y="880" type="line"/>
      <point x="457" y="681" type="line"/>
      <point x="267" y="548"/>
      <point x="104" y="299"/>
      <point x="104" y="51" type="curve" smooth="yes"/>
      <point x="104" y="-213"/>
      <point x="263" y="-369"/>
    </contour>
    <contour>
      <point x="444" y="999" type="line"/>
      <point x="770" y="999" type="line"/>
      <point x="770" y="1316" type="line"/>
      <point x="444" y="1316" type="line"/>
    </contour>
  </outline>
</glyph>
<glyph name="multiply" format="1">
  <advance width="993"/>
  <unicode hex="00D7"/>
  <outline>
    <contour>
      <point x="264" y="466" type="line"/>
      <point x="497" y="700" type="line"/>
      <point x="732" y="466" type="line"/>
      <point x="882" y="618" type="line"/>
      <point x="648" y="852" type="line"/>
      <point x="882" y="1087" type="line"/>
      <point x="730" y="1237" type="line"/>
      <point x="497" y="1004" type="line"/>
      <point x="263" y="1237" type="line"/>
      <point x="111" y="1084" type="line"/>
      <point x="345" y="852" type="line"/>
      <point x="111" y="618" type="line"/>
    </contour>
  </outline>
</glyph>
<glyph name="Dcroat" format="1">
  <advance width="1205"/>
  <unicode hex="0110"/>
  <outline>
    <contour>
      <point x="489" y="254" type="line"/>
      <point x="489" y="765" type="line"/>
      <point x="588" y="765" type="line"/>
      <point x="588" y="934" type="line"/>
      <point x="489" y="934" type="line"/>
      <point x="489" y="1402" type="line"/>
      <point x="559" y="1402" type="line" smooth="yes"/>
      <point x="722" y="1402"/>
      <point x="738" y="1344"/>
      <point x="738" y="1194" type="curve" smooth="yes"/>
      <point x="738" y="481" type="line" smooth="yes"/>
      <point x="738" y="326"/>
      <point x="728" y="254"/>
      <point x="561" y="254" type="curve" smooth="yes"/>
    </contour>
    <contour>
      <point x="131" y="0" type="line"/>
      <point x="554" y="0" type="line" smooth="yes"/>
      <point x="981" y="0"/>
      <point x="1106" y="160"/>
      <point x="1106" y="535" type="curve" smooth="yes"/>
      <point x="1106" y="1133" type="line" smooth="yes"/>
      <point x="1106" y="1505"/>
      <point x="982" y="1658"/>
      <point x="549" y="1658" type="curve" smooth="yes"/>
      <point x="131" y="1658" type="line"/>
      <point x="131" y="934" type="line"/>
      <point x="27" y="934" type="line"/>
      <point x="27" y="765" type="line"/>
      <point x="131" y="765" type="line"/>
    </contour>
  </outline>
</glyph>
<glyph name="lslash" format="1">
  <advance width="680"/>
  <unicode hex="0142"/>
  <outline>
    <contour>
      <point x="176" y="0" type="line"/>
      <point x="510" y="0" type="line"/>
      <point x="510" y="987" type="line"/>
      <point x="665" y="1054" type="line"/>
      <point x="665" y="1243" type="line"/>
      <point x="510" y="1176" type="line"/>
      <point x="510" y="1658" type="line"/>
      <point x="176" y="1658" type="line"/>
      <point x="176" y="1033" type="line"/>
      <point x="40" y="974" type="line"/>
      <point x="40" y="785" type="line"/>
      <point x="176" y="844" type="line"/>
    </contour>
  </outline>
</glyph>
<glyph name="uni0237" format="1">
  <advance width="551"/>
  <unicode hex="0237"/>
  <outline>
    <contour>
      <point x="-23" y="-348" type="line"/>
      <point x="31" y="-363"/>
      <point x="91" y="-374"/>
      <point x="154" y="-374" type="curve" smooth="yes"/>
      <point x="356" y="-374"/>
      <point x="460" y="-244"/>
      <point x="460" y="-57" type="curve" smooth="yes"/>
      <point x="460" y="1184" type="line"/>
      <point x="126" y="1184" type="line"/>
      <point x="126" y="-17" type="line" smooth="yes"/>
      <point x="126" y="-88"/>
      <point x="91" y="-116"/>
      <point x="36" y="-116" type="curve" smooth="yes"/>
      <point x="17" y="-116"/>
      <point x="-5" y="-112"/>
      <point x="-23" y="-108" type="curve"/>
    </contour>
  </outline>
</glyph>
<glyph name="tilde" format="1">
  <advance width="873"/>
  <unicode hex="02DC"/>
  <outline>
    <contour>
      <point x="632" y="1368" type="curve" smooth="yes"/>
      <point x="752" y="1376"/>
      <point x="770" y="1522"/>
      <point x="769" y="1658" type="curve"/>
      <point x="621" y="1658" type="line"/>
      <point x="621" y="1612"/>
      <point x="608" y="1575"/>
      <point x="563" y="1582" type="curve" smooth="yes"/>
      <point x="512" y="1588"/>
      <point x="410" y="1680"/>
      <point x="289" y="1671" type="curve" smooth="yes"/>
      <point x="150" y="1661"/>
      <point x="118" y="1547"/>
      <point x="119" y="1381" type="curve"/>
      <point x="279" y="1381" type="line"/>
      <point x="279" y="1423"/>
      <point x="291" y="1465"/>
      <point x="336" y="1465" type="curve" smooth="yes"/>
      <point x="406" y="1465"/>
      <point x="533" y="1361"/>
    </contour>
  </outline>
</glyph>
<glyph name="uni0306" format="1">
  <advance width="667"/>
  <unicode hex="0306"/>
  <outline>
    <contour>
      <point x="319" y="1400" type="curve" smooth="yes"/>
      <point x="503" y="1400"/>
      <point x="610" y="1496"/>
      <point x="610" y="1658" type="curve"/>
      <point x="464" y="1658" type="line"/>
      <point x="464" y="1575"/>
      <point x="420" y="1537"/>
      <point x="319" y="1537" type="curve" smooth="yes"/>
      <point x="218" y="1537"/>
      <point x="175" y="1574"/>
      <point x="175" y="1658" type="curve"/>
      <point x="28" y="1658" type="line"/>
      <point x="28" y="1496"/>
      <point x="135" y="1400"/>
    </contour>
  </outline>
</glyph>
<glyph name="uni030C" format="1">
  <advance width="625"/>
  <unicode hex="030C"/>
  <outline>
    <contour>
      <point x="174" y="1278" type="line"/>
      <point x="495" y="1278" type="line"/>
      <point x="677" y="1658" type="line"/>
      <point x="440" y="1658" type="line"/>
      <point x="335" y="1435" type="line"/>
      <point x="233" y="1658" type="line"/>
      <point x="-3" y="1658" type="line"/>
    </contour>
  </outline>
</glyph>
<glyph name="uni0326" format="1">
  <advance width="414"/>
  <unicode hex="0326"/>
  <outline>
    <contour>
      <point x="99" y="-656" type="line"/>
      <point x="280" y="-655"/>
      <point x="357" y="-539"/>
      <point x="357" y="-337" type="curve" smooth="yes"/>
      <point x="358" y="-69" type="line"/>
      <point x="43" y="-69" type="line"/>
      <point x="43" y="-381" type="line"/>
      <point x="216" y="-381" type="line"/>
      <point x="216" y="-497"/>
      <point x="147" y="-532"/>
      <point x="71" y="-543" type="curve"/>
    </contour>
  </outline>
</glyph>
<glyph name="afii10051" format="1">
  <advance width="1288"/>
  <unicode hex="0402"/>
  <outline>
    <contour>
      <point x="689" y="0" type="line"/>
      <point x="766" y="0" type="line" smooth="yes"/>
      <point x="1093" y="0"/>
      <point x="1208" y="110"/>
      <point x="1208" y="409" type="curve" smooth="yes"/>
      <point x="1208" y="704" type="line" smooth="yes"/>
      <point x="1208" y="892"/>
      <point x="1039" y="1003"/>
      <point x="856" y="1003" type="curve" smooth="yes"/>
      <point x="763" y="1003"/>
      <point x="665" y="975"/>
      <point x="583" y="913" type="curve"/>
      <point x="583" y="1402" type="line"/>
      <point x="868" y="1402" type="line"/>
      <point x="868" y="1658" type="line"/>
      <point x="-12" y="1658" type="line"/>
      <point x="-12" y="1402" type="line"/>
      <point x="222" y="1402" type="line"/>
      <point x="222" y="0" type="line"/>
      <point x="583" y="0" type="line"/>
      <point x="583" y="732" type="line"/>
      <point x="650" y="776"/>
      <point x="704" y="793"/>
      <point x="746" y="793" type="curve" smooth="yes"/>
      <point x="836" y="793"/>
      <point x="874" y="720"/>
      <point x="874" y="668" type="curve" smooth="yes"/>
      <point x="874" y="410" type="line" smooth="yes"/>
      <point x="874" y="270"/>
      <point x="817" y="211"/>
      <point x="689" y="211" type="curve"/>
    </contour>
  </outline>
</glyph>
<glyph name="afii10058" format="1">
  <advance width="1817"/>
  <unicode hex="0409"/>
  <outline>
    <contour>
      <point x="21" y="0" type="line"/>
      <point x="149" y="-1" type="line" smooth="yes"/>
      <point x="466" y="-4"/>
      <point x="590" y="132"/>
      <point x="619" y="591" type="curve" smooth="yes"/>
      <point x="669" y="1379" type="line"/>
      <point x="851" y="1379" type="line"/>
      <point x="851" y="0" type="line"/>
      <point x="1246" y="0" type="line" smooth="yes"/>
      <point x="1542" y="0"/>
      <point x="1773" y="77"/>
      <point x="1773" y="481" type="curve" smooth="yes"/>
      <point x="1773" y="816"/>
      <point x="1595" y="958"/>
      <point x="1278" y="958" type="curve" smooth="yes"/>
      <point x="1218" y="958" type="line"/>
      <point x="1218" y="1658" type="line"/>
      <point x="338" y="1658" type="line"/>
      <point x="264" y="598" type="line" smooth="yes"/>
      <point x="243" y="298"/>
      <point x="190" y="254"/>
      <point x="21" y="258" type="curve"/>
    </contour>
    <contour>
      <point x="1218" y="242" type="line"/>
      <point x="1218" y="705" type="line"/>
      <point x="1244" y="705" type="line" smooth="yes"/>
      <point x="1395" y="705"/>
      <point x="1431" y="613"/>
      <point x="1434" y="488" type="curve" smooth="yes"/>
      <point x="1438" y="315"/>
      <point x="1387" y="242"/>
      <point x="1249" y="242" type="curve" smooth="yes"/>
    </contour>
  </outline>
</glyph>
<glyph name="afii10060" format="1">
  <advance width="1209"/>
  <unicode hex="040B"/>
  <outline>
    <contour>
      <point x="235" y="0" type="line"/>
      <point x="600" y="0" type="line"/>
      <point x="600" y="756" type="line"/>
      <point x="625" y="768"/>
      <point x="667" y="787"/>
      <point x="703" y="788" type="curve" smooth="yes"/>
      <point x="756" y="789"/>
      <point x="768" y="762"/>
      <point x="768" y="717" type="curve" smooth="yes"/>
      <point x="768" y="0" type="line"/>
      <point x="1102" y="0" type="line"/>
      <point x="1102" y="757" type="line" smooth="yes"/>
      <point x="1102" y="892"/>
      <point x="1009" y="983"/>
      <point x="849" y="983" type="curve" smooth="yes"/>
      <point x="718" y="983"/>
      <point x="600" y="927"/>
      <point x="600" y="927" type="curve"/>
      <point x="600" y="1387" type="line"/>
      <point x="833" y="1387" type="line"/>
      <point x="833" y="1658" type="line"/>
      <point x="13" y="1658" type="line"/>
      <point x="13" y="1387" type="line"/>
      <point x="235" y="1387" type="line"/>
    </contour>
  </outline>
</glyph>
<glyph name="afii10025" format="1">
  <advance width="1075"/>
  <unicode hex="0417"/>
  <outline>
    <contour>
      <point x="545" y="-30" type="curve" smooth="yes"/>
      <point x="875" y="-30"/>
      <point x="998" y="183"/>
      <point x="998" y="488" type="curve" smooth="yes"/>
      <point x="998" y="721"/>
      <point x="912" y="825"/>
      <point x="794" y="869" type="curve"/>
      <point x="908" y="900"/>
      <point x="998" y="1041"/>
      <point x="998" y="1233" type="curve" smooth="yes"/>
      <point x="998" y="1529"/>
      <point x="821" y="1684"/>
      <point x="533" y="1684" type="curve" smooth="yes"/>
      <point x="252" y="1684"/>
      <point x="67" y="1518"/>
      <point x="67" y="1220" type="curve" smooth="yes"/>
      <point x="67" y="1120" type="line"/>
      <point x="410" y="1120" type="line"/>
      <point x="410" y="1125"/>
      <point x="410" y="1206"/>
      <point x="410" y="1211" type="curve" smooth="yes"/>
      <point x="413" y="1328"/>
      <point x="442" y="1409"/>
      <point x="533" y="1409" type="curve" smooth="yes"/>
      <point x="624" y="1409"/>
      <point x="660" y="1340"/>
      <point x="660" y="1211" type="curve" smooth="yes"/>
      <point x="660" y="1048"/>
      <point x="623" y="964"/>
      <point x="461" y="960" type="curve" smooth="yes"/>
      <point x="457" y="960"/>
      <point x="384" y="960"/>
      <point x="379" y="960" type="curve"/>
      <point x="379" y="734" type="line"/>
      <point x="384" y="734"/>
      <point x="463" y="733"/>
      <point x="468" y="733" type="curve" smooth="yes"/>
      <point x="625" y="728"/>
      <point x="660" y="641"/>
      <point x="660" y="478" type="curve" smooth="yes"/>
      <point x="660" y="333"/>
      <point x="644" y="258"/>
      <point x="549" y="258" type="curve" smooth="yes"/>
      <point x="457" y="258"/>
      <point x="431" y="322"/>
      <point x="430" y="483" type="curve" smooth="yes"/>
      <point x="429" y="489"/>
      <point x="429" y="542"/>
      <point x="429" y="548" type="curve"/>
      <point x="86" y="548" type="line"/>
      <point x="86" y="489" type="line" smooth="yes"/>
      <point x="86" y="179"/>
      <point x="198" y="-30"/>
    </contour>
  </outline>
</glyph>
<glyph name="afii10067" format="1">
  <advance width="1031"/>
  <unicode hex="0432"/>
  <outline>
    <contour>
      <point x="104" y="0" type="line"/>
      <point x="507" y="0" type="line" smooth="yes"/>
      <point x="856" y="0"/>
      <point x="971" y="111"/>
      <point x="971" y="344" type="curve" smooth="yes"/>
      <point x="971" y="496"/>
      <point x="931" y="601"/>
      <point x="760" y="643" type="curve"/>
      <point x="871" y="672"/>
      <point x="943" y="734"/>
      <point x="942" y="889" type="curve" smooth="yes"/>
      <point x="941" y="1063"/>
      <point x="878" y="1184"/>
      <point x="523" y="1184" type="curve" smooth="yes"/>
      <point x="104" y="1184" type="line"/>
    </contour>
    <contour>
      <point x="437" y="187" type="line"/>
      <point x="437" y="536" type="line"/>
      <point x="491" y="536" type="line" smooth="yes"/>
      <point x="583" y="536"/>
      <point x="646" y="534"/>
      <point x="646" y="353" type="curve" smooth="yes"/>
      <point x="646" y="192"/>
      <point x="576" y="187"/>
      <point x="489" y="187" type="curve" smooth="yes"/>
    </contour>
    <contour>
      <point x="437" y="718" type="line"/>
      <point x="437" y="1008" type="line"/>
      <point x="494" y="1008" type="line" smooth="yes"/>
      <point x="601" y="1008"/>
      <point x="623" y="949"/>
      <point x="623" y="860" type="curve" smooth="yes"/>
      <point x="623" y="770"/>
      <point x="597" y="718"/>
      <point x="517" y="718" type="curve" smooth="yes"/>
    </contour>
  </outline>
</glyph>
<glyph name="afii10077" format="1">
  <advance width="1159"/>
  <unicode hex="043B"/>
  <outline>
    <contour>
      <point x="27" y="-3" type="line"/>
      <point x="83" y="-9"/>
      <point x="134" y="-13"/>
      <point x="175" y="-13" type="curve" smooth="yes"/>
      <point x="427" y="-13"/>
      <point x="519" y="85"/>
      <point x="553" y="539" type="curve" smooth="yes"/>
      <point x="585" y="956" type="line"/>
      <point x="720" y="956" type="line"/>
      <point x="720" y="0" type="line"/>
      <point x="1054" y="0" type="line"/>
      <point x="1054" y="1184" type="line"/>
      <point x="302" y="1184" type="line"/>
      <point x="253" y="572" type="line" smooth="yes"/>
      <point x="233" y="301"/>
      <point x="217" y="203"/>
      <point x="27" y="224" type="curve"/>
    </contour>
  </outline>
</glyph>
<glyph name="afii10089" format="1">
  <advance width="1016"/>
  <unicode hex="0447"/>
  <outline>
    <contour>
      <point x="577" y="0" type="line"/>
      <point x="911" y="0" type="line"/>
      <point x="911" y="1184" type="line"/>
      <point x="577" y="1184" type="line"/>
      <point x="577" y="663" type="line"/>
      <point x="562" y="661"/>
      <point x="548" y="661"/>
      <point x="537" y="661" type="curve" smooth="yes"/>
      <point x="433" y="664"/>
      <point x="413" y="703"/>
      <point x="413" y="786" type="curve" smooth="yes"/>
      <point x="413" y="1184" type="line"/>
      <point x="79" y="1184" type="line"/>
      <point x="79" y="768" type="line" smooth="yes"/>
      <point x="79" y="581"/>
      <point x="166" y="470"/>
      <point x="469" y="470" type="curve" smooth="yes"/>
      <point x="503" y="470"/>
      <point x="540" y="473"/>
      <point x="577" y="476" type="curve"/>
    </contour>
  </outline>
</glyph>
<glyph name="quotedblright" format="1">
  <advance width="970"/>
  <unicode hex="201D"/>
  <outline>
    <contour>
      <point x="185" y="1074" type="line"/>
      <point x="375" y="1074"/>
      <point x="427" y="1194"/>
      <point x="435" y="1431" type="curve" smooth="yes"/>
      <point x="438" y="1480"/>
      <point x="438" y="1594"/>
      <point x="438" y="1658" type="curve"/>
      <point x="142" y="1658" type="line"/>
      <point x="142" y="1365" type="line"/>
      <point x="285" y="1365" type="line"/>
      <point x="285" y="1256"/>
      <point x="266" y="1180"/>
      <point x="160" y="1180" type="curve"/>
    </contour>
    <contour>
      <point x="610" y="1074" type="line"/>
      <point x="801" y="1074"/>
      <point x="852" y="1194"/>
      <point x="861" y="1431" type="curve" smooth="yes"/>
      <point x="863" y="1480"/>
      <point x="864" y="1594"/>
      <point x="864" y="1658" type="curve"/>
      <point x="567" y="1658" type="line"/>
      <point x="567" y="1365" type="line"/>
      <point x="710" y="1365" type="line"/>
      <point x="710" y="1256"/>
      <point x="692" y="1180"/>
      <point x="585" y="1180" type="curve"/>
    </contour>
  </outline>
</glyph>
<glyph name="quotedblbase" format="1">
  <advance width="974"/>
  <unicode hex="201E"/>
  <outline>
    <contour>
      <point x="186" y="-223" type="line"/>
      <point x="376" y="-223"/>
      <point x="428" y="-103"/>
      <point x="437" y="135" type="curve" smooth="yes"/>
      <point x="439" y="184"/>
      <point x="439" y="298"/>
      <point x="439" y="361" type="curve"/>
      <point x="143" y="361" type="line"/>
      <point x="143" y="69" type="line"/>
      <point x="286" y="69" type="line"/>
      <point x="286" y="-40"/>
      <point x="267" y="-117"/>
      <point x="161" y="-117" type="curve"/>
    </contour>
    <contour>
      <point x="627" y="-223" type="line"/>
      <point x="817" y="-223"/>
      <point x="869" y="-103"/>
      <point x="878" y="135" type="curve" smooth="yes"/>
      <point x="880" y="184"/>
      <point x="880" y="298"/>
      <point x="880" y="361" type="curve"/>
      <point x="584" y="361" type="line"/>
      <point x="584" y="69" type="line"/>
      <point x="727" y="69" type="line"/>
      <point x="727" y="-40"/>
      <point x="708" y="-117"/>
      <point x="602" y="-117" type="curve"/>
    </contour>
  </outline>
</glyph>
<glyph name="summation" format="1">
  <advance width="879"/>
  <unicode hex="2211"/>
  <outline>
    <contour>
      <point x="54" y="-390" type="line"/>
      <point x="828" y="-390" type="line"/>
      <point x="828" y="-142" type="line"/>
      <point x="435" y="-142" type="line"/>
      <point x="672" y="678" type="line"/>
      <point x="442" y="1408" type="line"/>
      <point x="824" y="1408" type="line"/>
      <point x="824" y="1658" type="line"/>
      <point x="54" y="1658" type="line"/>
      <point x="313" y="672" type="line"/>
    </contour>
  </outline>
</glyph>
<glyph name="minus" format="1">
  <advance width="966"/>
  <unicode hex="2212"/>
  <outline>
    <contour>
      <point x="141" y="692" type="line"/>
      <point x="825" y="692" type="line"/>
      <point x="825" y="906" type="line"/>
      <point x="141" y="906" type="line"/>
    </contour>
  </outline>
</glyph>
<glyph name="infinity" format="1">
  <advance width="1335"/>
  <unicode hex="221E"/>
  <outline>
    <contour>
      <point x="363" y="191" type="curve" smooth="yes"/>
      <point x="491" y="191"/>
      <point x="593" y="283"/>
      <point x="672" y="371" type="curve"/>
      <point x="751" y="291"/>
      <point x="860" y="211"/>
      <point x="967" y="213" type="curve"/>
      <point x="1161" y="214"/>
      <point x="1280" y="388"/>
      <point x="1280" y="583" type="curve" smooth="yes"/>
      <point x="1280" y="778"/>
      <point x="1161" y="951"/>
      <point x="967" y="953" type="curve"/>
      <point x="860" y="955"/>
      <point x="751" y="874"/>
      <point x="672" y="795" type="curve"/>
      <point x="593" y="882"/>
      <point x="491" y="974"/>
      <point x="363" y="974" type="curve" smooth="yes"/>
      <point x="154" y="974"/>
      <point x="55" y="777"/>
      <point x="55" y="583" type="curve" smooth="yes"/>
      <point x="55" y="389"/>
      <point x="154" y="191"/>
    </contour>
    <contour>
      <point x="362" y="452" type="curve" smooth="yes"/>
      <point x="316" y="450"/>
      <point x="269" y="484"/>
      <point x="269" y="583" type="curve" smooth="yes"/>
      <point x="269" y="682"/>
      <point x="316" y="716"/>
      <point x="362" y="714" type="curve" smooth="yes"/>
      <point x="425" y="712"/>
      <point x="503" y="659"/>
      <point x="585" y="583" type="curve"/>
      <point x="503" y="506"/>
      <point x="417" y="453"/>
    </contour>
    <contour>
      <point x="978" y="462" type="curve" smooth="yes"/>
      <point x="914" y="458"/>
      <point x="843" y="506"/>
      <point x="762" y="583" type="curve"/>
      <point x="843" y="660"/>
      <point x="914" y="707"/>
      <point x="978" y="703" type="curve" smooth="yes"/>
      <point x="1004" y="703"/>
      <point x="1056" y="679"/>
      <point x="1056" y="583" type="curve" smooth="yes"/>
      <point x="1056" y="486"/>
      <point x="1004" y="463"/>
    </contour>
  </outline>
</glyph>
<glyph name="lessequal" format="1">
  <advance width="825"/>
  <unicode hex="2264"/>
  <outline>
    <contour>
      <point x="726" y="320" type="line"/>
      <point x="726" y="611" type="line"/>
      <point x="333" y="894" type="line"/>
      <point x="726" y="1174" type="line"/>
      <point x="726" y="1467" type="line"/>
      <point x="93" y="1023" type="line"/>
      <point x="93" y="762" type="line"/>
    </contour>
    <contour>
      <point x="62" y="0" type="line"/>
      <point x="747" y="0" type="line"/>
      <point x="747" y="214" type="line"/>
      <point x="62" y="214" type="line"/>
    </contour>
  </outline>
</glyph>
